<?xml version="1.0" standalone="no"?>
<!DOCTYPE svg PUBLIC "-//W3C//DTD SVG 20010904//EN"
 "http://www.w3.org/TR/2001/REC-SVG-20010904/DTD/svg10.dtd">
<svg version="1.0" xmlns="http://www.w3.org/2000/svg"
 width="1059.000000pt" height="1059.000000pt" viewBox="0 0 1059.000000 1059.000000"
 preserveAspectRatio="xMidYMid meet">
<metadata>
Created by potrace 1.14, written by Peter Selinger 2001-2017
</metadata>
<g transform="translate(0.000000,1059.000000) scale(0.100000,-0.100000)"
fill="#000000" stroke="none">
<path d="M5028 10405 c-2 -1 -46 -6 -98 -9 -223 -16 -351 -33 -565 -72 -44 -9
-93 -18 -110 -20 -16 -3 -57 -12 -90 -21 -33 -8 -67 -16 -76 -18 -155 -31
-616 -180 -754 -245 -31 -14 -139 -63 -145 -65 -3 -1 -17 -5 -32 -9 -16 -5
-28 -12 -28 -17 0 -5 -4 -9 -10 -9 -18 0 -374 -181 -406 -206 -10 -9 -40 -27
-79 -49 -29 -16 -97 -60 -209 -134 -54 -36 -106 -70 -114 -76 -15 -9 -23 -15
-54 -40 -7 -6 -44 -33 -83 -60 -38 -28 -88 -67 -110 -87 -22 -21 -46 -38 -53
-38 -7 0 -11 -4 -7 -9 3 -5 -3 -12 -12 -15 -10 -4 -42 -29 -72 -56 -29 -28
-58 -50 -63 -50 -5 0 -6 -4 -3 -10 3 -5 2 -10 -3 -10 -18 0 -239 -213 -394
-381 -78 -85 -90 -98 -156 -178 -21 -24 -43 -50 -49 -57 -7 -7 -13 -18 -13
-24 0 -6 -4 -9 -9 -5 -5 3 -12 -3 -15 -12 -4 -10 -19 -32 -34 -49 -15 -18 -34
-42 -42 -54 -8 -12 -23 -31 -32 -42 -9 -10 -47 -64 -85 -119 -37 -55 -78 -112
-90 -127 -13 -15 -23 -31 -23 -35 0 -10 -41 -69 -55 -79 -5 -4 -7 -8 -2 -8 7
0 -19 -48 -33 -60 -8 -7 -80 -130 -80 -136 0 -3 -7 -12 -15 -21 -8 -8 -13 -19
-10 -24 4 -5 1 -9 -5 -9 -6 0 -8 -4 -5 -10 3 -5 2 -10 -3 -10 -16 0 -196 -371
-277 -570 -59 -146 -58 -144 -59 -150 -1 -3 -13 -36 -28 -75 -24 -64 -51 -143
-53 -155 0 -3 -13 -41 -27 -85 -24 -72 -51 -166 -49 -172 0 -2 -6 -21 -14 -42
-14 -42 -63 -250 -81 -345 -2 -16 -7 -32 -9 -36 -2 -3 -7 -28 -10 -56 -8 -58
-10 -68 -19 -114 -12 -67 -16 -95 -21 -140 -3 -25 -7 -61 -10 -80 -13 -98 -17
-134 -32 -325 -15 -193 -8 -736 12 -910 2 -16 6 -57 10 -90 3 -33 8 -71 10
-85 2 -14 6 -46 9 -72 19 -159 52 -334 108 -568 17 -68 31 -129 33 -135 1 -5
4 -17 8 -25 3 -8 13 -44 22 -80 16 -59 58 -193 72 -230 3 -8 7 -19 8 -25 7
-31 114 -307 157 -405 59 -134 165 -354 187 -389 8 -13 16 -31 17 -39 2 -8 7
-18 12 -21 5 -3 22 -31 37 -61 15 -30 65 -115 111 -189 46 -73 84 -136 84
-138 0 -3 14 -23 31 -44 19 -24 29 -47 26 -58 -3 -14 0 -17 13 -14 14 4 21 -5
30 -34 19 -60 94 -197 143 -260 217 -283 676 -555 1267 -752 400 -134 950
-258 1385 -312 55 -7 106 -17 114 -23 8 -6 53 -34 100 -63 l86 -51 29 46 c16
26 29 48 30 49 0 1 37 -3 81 -8 385 -43 1264 -56 1760 -26 844 52 1561 179
2185 388 591 197 1050 469 1267 752 49 63 124 200 143 260 l12 39 64 -4 c35
-2 64 0 64 5 0 7 -19 10 -77 10 -21 0 -33 5 -33 13 0 14 100 177 113 182 4 2
7 8 7 13 0 5 25 49 55 97 30 49 55 94 55 100 0 5 3 12 8 14 8 3 19 24 97 176
29 56 50 102 47 102 -4 0 1 7 11 14 10 8 17 16 16 18 -2 4 37 94 58 133 10 17
16 31 15 32 -1 2 8 24 20 50 12 27 22 50 23 53 0 3 24 64 52 135 28 72 60 157
71 190 31 89 91 284 96 309 3 11 10 37 16 56 6 19 13 46 16 60 2 14 9 36 14
50 5 14 11 39 14 55 2 17 11 60 20 96 24 103 29 130 50 254 9 50 18 99 20 110
4 24 18 128 22 170 1 17 5 50 8 75 22 175 29 321 30 600 1 289 -8 500 -27 635
-3 22 -9 63 -12 90 -3 28 -7 64 -9 80 -4 26 -18 121 -21 135 -1 3 -5 30 -9 60
-5 30 -10 64 -13 75 -2 11 -6 34 -9 50 -3 17 -14 64 -24 105 -10 41 -21 92
-25 114 -19 111 -165 587 -216 701 -4 11 -18 45 -29 75 -11 30 -25 64 -29 75
-5 11 -33 73 -62 139 -44 100 -84 182 -187 381 -8 17 -20 33 -25 36 -5 3 -7 8
-6 10 5 6 -73 143 -83 147 -4 2 -8 8 -8 14 0 6 -14 30 -30 55 -16 24 -30 46
-30 49 0 5 -116 180 -132 199 -5 5 -22 30 -38 55 -16 25 -38 55 -49 67 -12 12
-21 26 -21 30 0 4 -16 25 -35 47 -19 21 -35 42 -35 47 0 4 -8 16 -18 26 -16
16 -86 99 -132 156 -97 121 -442 477 -462 477 -5 0 -6 5 -3 10 3 6 1 10 -5 10
-9 0 -39 25 -121 103 -17 15 -32 27 -34 27 -3 0 -14 8 -24 18 -50 46 -82 72
-88 72 -3 0 -16 11 -29 26 -13 14 -24 23 -24 20 0 -4 -9 2 -20 12 -11 9 -29
25 -40 35 -11 9 -20 15 -20 12 0 -4 -32 21 -64 50 -6 6 -32 24 -58 40 -27 17
-48 33 -48 38 0 4 -6 7 -13 7 -7 0 -23 9 -35 20 -12 11 -26 20 -32 20 -5 0
-10 5 -10 10 0 6 -4 10 -9 10 -5 0 -36 18 -69 39 -32 22 -75 49 -94 59 -19 11
-46 26 -59 34 -13 7 -31 18 -39 24 -14 11 -101 58 -250 136 -219 114 -672 297
-799 323 -9 2 -29 8 -46 15 -38 15 -191 56 -275 75 -8 2 -45 10 -81 19 -92 21
-131 29 -229 46 -30 6 -64 12 -75 14 -33 6 -97 15 -154 22 -30 3 -63 8 -75 10
-11 2 -52 6 -91 9 -38 4 -92 8 -120 11 -53 5 -642 14 -647 9z m1225 -8224 l28
-11 -18 -30 c-12 -21 -22 -28 -33 -24 -8 4 -39 9 -67 12 -57 5 -83 -7 -83 -38
0 -25 20 -38 102 -69 56 -20 78 -34 93 -58 11 -18 23 -32 26 -33 3 0 25 53 48
118 24 64 48 122 54 129 7 6 26 12 42 13 73 5 69 9 114 -120 55 -156 69 -190
81 -190 6 0 10 60 10 155 l0 155 73 1 c39 1 76 1 80 0 4 -1 24 -4 45 -7 79
-13 107 -45 106 -125 -1 -87 -31 -115 -144 -134 l-65 -10 -3 -57 -3 -57 -94
-3 c-94 -3 -95 -3 -100 22 -5 24 -8 25 -90 26 -82 0 -84 0 -90 -25 -5 -24 -10
-26 -55 -26 -33 0 -50 4 -50 13 0 15 0 15 -46 -4 -43 -18 -157 -15 -207 5
l-28 11 18 30 c12 21 22 28 33 24 47 -21 91 -27 117 -18 23 8 28 15 28 44 0
33 -2 35 -75 62 -41 16 -85 40 -97 54 -50 56 -15 150 65 173 42 12 144 7 185
-8z"/>
<path d="M6744 2107 c-3 -13 -4 -41 -2 -63 3 -38 4 -39 44 -42 51 -4 74 16 74
63 0 41 -29 65 -77 65 -26 0 -34 -5 -39 -23z"/>
<path d="M6431 2018 c-27 -80 -27 -98 2 -100 35 -2 61 2 70 11 10 10 -31 151
-43 151 -5 0 -18 -28 -29 -62z"/>
</g>
</svg>
